<svg width="6207" height="851" viewBox="0 0 6207 851" fill="none" xmlns="http://www.w3.org/2000/svg">
    <path fill-rule="evenodd" clip-rule="evenodd"
        d="M860.167 406.884C860.167 482.435 848.151 532.728 822.354 565.146C791.669 602.847 741.183 620.975 667.688 620.975H344.272C270.775 620.975 220.297 602.847 189.941 565.554C163.808 532.728 151.791 482.435 151.791 406.884V317.592C151.791 249.098 164.982 199.482 192.12 165.912C224.737 124.634 280.636 103.501 357.94 103.501H654.026C731.3 103.501 787.198 124.634 820.165 166.313C846.984 199.514 860.167 249.122 860.167 317.592V406.884ZM943.5 46.7247C914.278 25.5589 850.299 0 713.518 0H505.98H468.324H298.441C161.668 0 97.6811 25.5589 68.4662 46.7247C22.3962 80.531 0 142.86 0 237.265V442.97V487.212C0 493.23 0.0958126 499.101 0.279453 504.866H0V620.975V724.468V850.965L202.396 724.468H298.441H342.003H468.324H505.98H713.518C849.996 724.468 913.814 698.485 943.317 676.698C989.722 643.194 1011.96 581.371 1011.96 487.212V442.97V237.265C1011.96 142.86 989.571 80.531 943.5 46.7247Z"
        fill="#FF5F00" />
    <path fill-rule="evenodd" clip-rule="evenodd"
        d="M1115.46 252.956V436.9L1276.46 528.971V160.986L1115.46 252.956Z" fill="#FF5F00" />
    <path fill-rule="evenodd" clip-rule="evenodd"
        d="M676.964 330.587V391.041V405.578C676.964 438.66 652.309 465.48 621.894 465.48H588.518H562.381H461.445H420.084H386.109C355.696 465.48 331.039 438.66 331.039 405.578V395.432V327.289V313.721C331.039 280.639 355.696 253.819 386.109 253.819H413.291H475.47H563.087H597.999H621.894C652.309 253.819 676.964 280.639 676.964 313.721V330.587ZM767.661 192.865C745.239 162.949 704.362 147.994 645.055 147.994H362.95C303.627 147.994 262.75 162.949 240.336 192.865C221.521 217.431 212.125 258.078 212.125 314.84V404.583C212.125 467.491 220.807 510.443 238.171 533.455C257.7 558.772 294.945 571.421 349.931 571.421H658.074C713.037 571.421 750.304 558.772 769.834 533.455C787.197 510.443 795.879 467.491 795.879 404.583V314.84C795.879 258.078 786.468 217.431 767.661 192.865Z"
        fill="white" />
    <path fill-rule="evenodd" clip-rule="evenodd"
        d="M1758.52 317.616V363.957C1758.52 396.43 1763.47 418.599 1773.39 430.487C1784.54 443.552 1805.78 450.078 1837.17 450.078H2013.04C2044.4 450.078 2065.68 443.552 2076.81 430.487C2086.73 418.599 2091.68 396.43 2091.68 363.957V317.616C2091.68 288.322 2086.31 267.328 2075.58 254.66C2062.78 239.209 2039.45 231.484 2005.6 231.484H1844.6C1810.75 231.484 1787.42 239.209 1774.63 254.66C1763.87 267.328 1758.52 288.322 1758.52 317.616ZM1617 405.264V276.964C1617 217.56 1634.54 175.778 1669.63 151.618C1699.35 131.428 1747.65 121.328 1814.54 121.328H1861.1L1992.31 121H2035.32C2102.19 121 2150.7 131.101 2180.84 151.29C2215.52 175.45 2232.86 217.232 2232.86 276.638V404.936C2232.86 464.34 2215.52 505.919 2180.84 529.683C2150.7 550.281 2102.19 560.574 2035.32 560.574H1998.56L1848.77 560.902H1814.54C1747.65 560.902 1699.35 550.609 1669.63 530.011C1634.54 506.247 1617 464.669 1617 405.264Z"
        fill="white" />
    <path fill-rule="evenodd" clip-rule="evenodd"
        d="M2276.84 405.15V276.754C2276.84 217.305 2294 175.492 2328.33 151.314C2357.41 131.109 2404.66 121 2470.1 121H2628.21C2692.01 121 2739.07 125.958 2769.37 135.863C2799.65 145.768 2820.03 162.825 2830.55 186.993C2839.42 207.208 2843.67 239.299 2843.27 283.286H2708.78V271.4C2708.78 244.857 2687.77 231.578 2645.78 231.578H2499.17C2466.06 231.578 2443.23 239.299 2430.71 254.76C2420.2 267.439 2414.96 288.447 2414.96 317.763V364.139C2414.96 396.637 2419.81 418.823 2429.49 430.72C2440.42 443.805 2461.2 450.335 2491.91 450.335H2635.47C2667.38 450.335 2688.49 446.872 2698.78 439.934C2709.08 433.005 2714.22 416.649 2714.22 390.887H2848.72V431.308C2848.72 472.533 2838.62 503.242 2818.44 523.447C2792.98 548.417 2749.15 560.902 2686.96 560.902H2470.1C2404.66 560.902 2357.41 550.601 2328.33 529.99C2294 506.208 2276.84 464.598 2276.84 405.15Z"
        fill="white" />
    <path fill-rule="evenodd" clip-rule="evenodd"
        d="M2892.72 230.377V121H3420.6V230.377H3225.93V560.902H3087.4V230.377H2892.72Z" fill="white" />
    <path fill-rule="evenodd" clip-rule="evenodd"
        d="M3638.54 223.078L3558.64 388.357H3720.73L3638.54 223.078ZM3332.61 560.902L3556.36 121H3721.3L3948.47 560.902H3807.48L3768.1 483.133H3511.26L3474.15 560.902H3332.61Z"
        fill="white" />
    <path fill-rule="evenodd" clip-rule="evenodd"
        d="M4171.63 230.377V340.957H4381.67C4410.91 340.957 4425.51 325.373 4425.51 294.182V277.151C4425.51 245.973 4407.04 230.377 4370.12 230.377H4171.63ZM4036.45 560.902V121H4404.82C4464.89 121 4507.51 135.404 4532.68 164.154C4553.77 187.652 4564.33 223.493 4564.33 271.691V309.362C4564.33 347.853 4555.6 379.448 4538.15 404.15C4516.64 434.935 4483.96 450.334 4440.14 450.334H4171.63V560.902H4036.45Z"
        fill="#FF5F00" />
    <path fill-rule="evenodd" clip-rule="evenodd"
        d="M4608.34 401.048V121H4736.84V372.201C4736.84 399.846 4742.23 419.585 4753.03 431.393C4763.85 443.225 4782.38 449.119 4808.62 449.119H4935.95C4962.19 449.119 4980.71 443.225 4991.53 431.393C5002.33 419.585 5007.73 399.846 5007.73 372.201V121H5136.22V401.048C5136.22 455.526 5122.24 495.793 5094.28 521.836C5066.28 547.881 5022.97 560.902 4964.3 560.902H4780.26C4721.59 560.902 4678.27 547.881 4650.3 521.836C4622.32 495.793 4608.34 455.526 4608.34 401.048Z"
        fill="#FF5F00" />
    <path fill-rule="evenodd" clip-rule="evenodd"
        d="M5224.2 560.902V121H5373.19V447.882H5708.09V560.902H5224.2Z" fill="#FF5F00" />
    <path fill-rule="evenodd" clip-rule="evenodd"
        d="M5767 560.902V121H5902.23V447.882H6206.9V560.902H5767Z" fill="#FF5F00" />
</svg>